<svg id="Layer_1" data-name="Layer 1" xmlns="http://www.w3.org/2000/svg" viewBox="0 0 460.07 412.32"><defs><style>.cls-1{fill:#ffc415;}</style></defs><title>Warning</title><path class="cls-1" d="M229.81,412.27q-88.83,0-177.66,0c-25.16,0-45.95-16.5-51-40.43a49.71,49.71,0,0,1,5.59-36Q94.28,184.26,181.71,32.67c8.15-14.18,17.85-25.86,34.1-30.56,22.27-6.43,45,2,57.41,22.42,14.59,24.07,28.32,48.65,42.39,73q68.75,119,137.46,238c19.84,34.39-4.79,76.5-45,76.63C348.63,412.42,289.22,412.27,229.81,412.27Zm-.42-19.95q88.23,0,176.47,0c6.74,0,13.17-1,19-4.48,15.61-9.4,19.41-28.12,9.45-45.31q-34.14-58.95-68.15-118Q311.58,130,256.94,35.5C246.18,17,222.2,14.55,207.25,30c-4,4.13-6.38,9.25-9.19,14.1Q132.62,157.22,67.3,270.46C53.22,294.83,39.2,319.23,25,343.55c-5.44,9.32-6.64,19.06-2.87,29.06,4.76,12.67,16,19.68,30.75,19.69Q141.16,392.36,229.39,392.32Z"/><path class="cls-1" d="M239.55,206.61c0,21.55-.15,43.11.1,64.66.06,5.6-1.85,7.45-7.4,7.36-11.84-.18-11.84.06-11.84-11.56q0-62.61,0-125.23c0-8,.13-8.09,8.16-8.13,11-.06,11-.06,11,11.16Z"/><path class="cls-1" d="M220.41,315.4c.21-13.46-2.25-12.67,13.37-12.71,4.19,0,6,1.64,5.8,5.86-.19,4.81-.16,9.64,0,14.46.12,4-1.72,5.47-5.58,5.45C218.08,328.42,220.65,329.45,220.41,315.4Z"/></svg>